<svg id="visual" viewBox="0 0 900 600" width="900" height="600" xmlns="http://www.w3.org/2000/svg" xmlns:xlink="http://www.w3.org/1999/xlink" version="1.1"><rect x="0" y="0" width="900" height="600" fill="#0d1321"></rect><path d="M699 600L693.8 575C688.7 550 678.3 500 673.2 450C668 400 668 350 667.5 300C667 250 666 200 673.3 150C680.7 100 696.3 50 704.2 25L712 0L900 0L900 25C900 50 900 100 900 150C900 200 900 250 900 300C900 350 900 400 900 450C900 500 900 550 900 575L900 600Z" fill="#1d2d44"></path><path d="M738 600L739.5 575C741 550 744 500 743.8 450C743.7 400 740.3 350 742.5 300C744.7 250 752.3 200 749.2 150C746 100 732 50 725 25L718 0L900 0L900 25C900 50 900 100 900 150C900 200 900 250 900 300C900 350 900 400 900 450C900 500 900 550 900 575L900 600Z" fill="#32435c"></path><path d="M792 600L788.5 575C785 550 778 500 773.5 450C769 400 767 350 769.3 300C771.7 250 778.3 200 784.7 150C791 100 797 50 800 25L803 0L900 0L900 25C900 50 900 100 900 150C900 200 900 250 900 300C900 350 900 400 900 450C900 500 900 550 900 575L900 600Z" fill="#475a76"></path><path d="M799 600L805.8 575C812.7 550 826.3 500 826 450C825.7 400 811.3 350 807.3 300C803.3 250 809.7 200 812.3 150C815 100 814 50 813.5 25L813 0L900 0L900 25C900 50 900 100 900 150C900 200 900 250 900 300C900 350 900 400 900 450C900 500 900 550 900 575L900 600Z" fill="#5d7390"></path><path d="M871 600L872.3 575C873.7 550 876.3 500 878.3 450C880.3 400 881.7 350 882.2 300C882.7 250 882.3 200 879.8 150C877.3 100 872.7 50 870.3 25L868 0L900 0L900 25C900 50 900 100 900 150C900 200 900 250 900 300C900 350 900 400 900 450C900 500 900 550 900 575L900 600Z" fill="#748cab"></path></svg>